<?xml version="1.0" encoding="utf-8"?>
<!-- Generator: Adobe Illustrator 27.2.0, SVG Export Plug-In . SVG Version: 6.00 Build 0)  -->
<svg version="1.1" id="Layer_1" xmlns="http://www.w3.org/2000/svg" xmlns:xlink="http://www.w3.org/1999/xlink" x="0px" y="0px"
	 viewBox="0 0 40 36" style="enable-background:new 0 0 40 36;" xml:space="preserve">
<style type="text/css">
	.st0{fill:#88888C;}
</style>
<g>
	<path class="st0" d="M25.6,28.6L25.6,28.6c4.6,0,9,2.6,11.4,6.7c0,0,0,0,0,0c0,0,0,0,0,0.1c0.2,0.4,0.6,0.6,1,0.7
		c0.4,0.1,0.8,0,1.2-0.3c0.8-0.6,1-1.7,0.5-2.6c-2.9-5.1-8.3-8.2-14.1-8.3h-0.2c-5.8,0-11.1,3.2-14,8.3c-0.5,0.8-0.3,2,0.5,2.6
		c0.7,0.5,1.7,0.3,2.2-0.4l0.1-0.2c2.3-4,6.7-6.6,11.3-6.6L25.6,28.6L25.6,28.6z M0.3,33.1L0.3,33.1c-0.5,0.9-0.3,2,0.5,2.6
		C1.1,35.9,1.6,36,2,35.9l0,0c0.4-0.1,0.7-0.3,0.9-0.6L3,35.2c1.5-2.5,3.6-4.4,6.2-5.5c1.3-1.8,2.9-3.4,4.7-4.7
		C8.2,25.1,3.1,28.1,0.3,33.1z M25.8,35.2c0.3,0.5,0.8,0.8,1.3,0.8c0.3,0,0.6-0.1,0.9-0.3c0.8-0.6,1-1.7,0.5-2.6
		c0,0-0.1-0.1-0.1-0.1l0,0c0,0,0-0.1,0-0.1c0,0,0-0.1,0-0.1c-0.9-0.3-1.9-0.5-2.9-0.5c-0.6,0-1.2,0.1-1.7,0.2
		C24.5,33.3,25.2,34.2,25.8,35.2L25.8,35.2z M25.6,0c-5.5,0-9.9,4.5-9.9,10.1s4.5,10.1,9.9,10.1c5.5,0,9.9-4.5,9.9-10.1S31,0,25.6,0
		z M14.4,0C8.9,0,4.5,4.5,4.5,10.1s4.5,10.1,9.9,10.1c0.6,0,1.1,0,1.6-0.1c-1-1-1.8-2.1-2.5-3.3c-3.2-0.5-5.7-3.3-5.7-6.6
		c0-3.3,2.4-6.1,5.7-6.6C14.2,2.2,15,1.1,16,0.1C15.5,0,15,0,14.4,0z M25.6,16.7c-3.6,0-6.6-3-6.6-6.7s2.9-6.7,6.6-6.7
		s6.6,3,6.6,6.7S29.2,16.7,25.6,16.7z"/>
</g>
<path class="st0" d="M84.6,45.3C84.6,45.3,84.6,45.3,84.6,45.3L84.6,45.3L84.6,45.3C84.6,45.3,84.6,45.3,84.6,45.3z"/>
</svg>
