<?xml version="1.0" encoding="utf-8"?>
<!-- Generator: Adobe Illustrator 27.2.0, SVG Export Plug-In . SVG Version: 6.00 Build 0)  -->
<svg version="1.1" id="Layer_1" xmlns="http://www.w3.org/2000/svg" xmlns:xlink="http://www.w3.org/1999/xlink" x="0px" y="0px"
	 viewBox="0 0 36 36" style="enable-background:new 0 0 36 36;" xml:space="preserve">
<style type="text/css">
	.st0{fill:#88888C;}
</style>
<path class="st0" d="M34,15.7h-7V1.7C27,0.8,26.2,0,25.3,0H10.7C9.8,0,9,0.8,9,1.7v14.1H2c-1.7,0-2.6,2.1-1.4,3.4l16,16.3
	c0.2,0.1,0.3,0.3,0.5,0.4c0.2,0.1,0.4,0.1,0.5,0.2c0.1,0,0.2,0,0.4,0s0.2,0,0.4,0c0.2,0,0.4-0.1,0.5-0.2c0.2-0.1,0.3-0.2,0.5-0.4
	l16-16.3C36.7,17.9,35.8,15.7,34,15.7z M18,32L5.3,19.1h5.4c0.9,0,1.7-0.8,1.7-1.7V3.4h11.3v14.1c0,0.9,0.8,1.7,1.7,1.7h5.4L18,32z"
	/>
</svg>
