<?xml version="1.0" encoding="utf-8"?>
<!-- Generator: Adobe Illustrator 27.2.0, SVG Export Plug-In . SVG Version: 6.00 Build 0)  -->
<svg version="1.1" id="Layer_1" xmlns="http://www.w3.org/2000/svg" xmlns:xlink="http://www.w3.org/1999/xlink" x="0px" y="0px"
	 viewBox="0 0 14 14" style="enable-background:new 0 0 14 14;" xml:space="preserve">
<style type="text/css">
	.st0{fill:#88888C;}
</style>
<path class="st0" d="M-20.7-5.8C-20.7-5.8-20.7-5.8-20.7-5.8L-20.7-5.8L-20.7-5.8C-20.7-5.8-20.7-5.8-20.7-5.8z"/>
<path class="st0" d="M7,0C5.1,0,3.4,0.7,2.1,2.1C0.7,3.4,0,5.1,0,7c0,1.9,0.7,3.6,2.1,4.9C3.4,13.3,5.1,14,7,14
	c1.9,0,3.6-0.7,4.9-2.1C13.3,10.6,14,8.9,14,7c0-1.9-0.7-3.6-2.1-4.9C10.6,0.7,8.9,0,7,0z M7,12.9c-1.6,0-3.1-0.6-4.2-1.7
	C1.7,10.1,1.1,8.6,1.1,7l0,0c0-0.8,0.1-1.5,0.4-2.3C1.8,4,2.2,3.3,2.8,2.8c0.6-0.6,1.2-1,1.9-1.3C5.4,1.2,6.2,1,7,1c0,0,0,0,0,0
	c1.6,0,3.1,0.6,4.2,1.8c1.1,1.1,1.7,2.6,1.7,4.2c0,1.6-0.6,3.1-1.7,4.2C10.1,12.3,8.6,12.9,7,12.9z M7,6.2c-0.1,0-0.1,0-0.2,0
	c-0.1,0-0.1,0.1-0.2,0.1C6.5,6.4,6.5,6.5,6.5,6.6c0,0.1,0,0.1,0,0.2V10c0,0.1,0,0.1,0,0.2c0,0.1,0.1,0.1,0.1,0.2
	c0.1,0.1,0.1,0.1,0.2,0.1c0.2,0.1,0.5,0,0.6-0.1c0.1-0.1,0.2-0.3,0.2-0.4V6.8c0-0.2-0.1-0.3-0.2-0.4S7.1,6.2,7,6.2z M6.6,3.6
	C6.5,3.6,6.5,3.7,6.5,3.8c0,0.1,0,0.1,0,0.2c0,0.2,0.1,0.3,0.2,0.4C6.7,4.5,6.9,4.6,7,4.6c0.2,0,0.3-0.1,0.4-0.2
	C7.5,4.3,7.6,4.1,7.6,4c0-0.1-0.1-0.3-0.2-0.4C7.2,3.4,6.8,3.4,6.6,3.6L6.6,3.6z"/>
</svg>
