<?xml version="1.0" encoding="utf-8"?>
<!-- Generator: Adobe Illustrator 27.2.0, SVG Export Plug-In . SVG Version: 6.00 Build 0)  -->
<svg version="1.1" id="Layer_1" xmlns="http://www.w3.org/2000/svg" xmlns:xlink="http://www.w3.org/1999/xlink" x="0px" y="0px"
	 viewBox="0 0 148 22" style="enable-background:new 0 0 148 22;" xml:space="preserve">
<style type="text/css">
	.st0{fill:#88888C;}
</style>
<g>
	<path d="M91.6,21.7l7.5-21.4h-3.6l-5.8,17l-5.8-17h-3.6l7.5,21.4H91.6z M104.6,21.7V0.3h-3.2v21.4H104.6z M119.9,21.7v-3.5h-8.6
		v-5.6h7.3V9.4h-7.3V3.8h8.6V0.3h-12v21.4H119.9z M131.2,21.7L135,7l3.8,14.7h3.2l6-21.4h-3.5l-4,14.9l-3.9-14.9h-3.2l-3.9,14.9
		l-4-14.8V0.3h-3.5l5.9,21.4H131.2z"/>
	<path class="st0" d="M66.8,0c1.4,0,2.8,0.2,4.1,0.7c1.3,0.5,2.5,1.3,3.4,2.3c1,1.1,1.8,2.3,2.2,3.7c0.5,1.4,0.7,2.8,0.6,4.3
		c0.1,2.9-0.9,5.8-2.9,7.9c-1,1-2.1,1.8-3.4,2.3c-1.3,0.5-2.7,0.8-4.1,0.7c-1.4,0-2.8-0.2-4.1-0.7c-1.3-0.5-2.5-1.3-3.4-2.3
		c-1-1.1-1.7-2.3-2.2-3.7s-0.7-2.8-0.6-4.3c-0.1-2.9,0.9-5.8,2.9-7.9c1-1,2.1-1.8,3.4-2.3C64,0.2,65.4,0,66.8,0z M3.2,0.3v21.4H0
		V0.3H3.2z M9.1,0.3l10.4,14.8V0.3h3.4v21.4h-2.5L10,6.9v14.8H6.6V0.3H9.1z M39,0.3v3.6h-5.4v17.8h-3.3V3.9h-5.4V0.3H39z M48,0.3
		h0.4c1.7,0.1,3.3,0.8,4.4,2c1.3,1.3,2,3.1,2,5c0,0.9-0.2,1.8-0.5,2.7c-0.3,0.9-0.8,1.6-1.5,2.3C52,13,51.1,13.6,50.1,14l5,7.7h-3.9
		l-4.8-7.5h-2.1v7.5H41V0.3H48z M66.8,3.4c-0.9,0-1.8,0.1-2.6,0.5c-0.8,0.3-1.6,0.8-2.2,1.4c-0.7,0.8-1.3,1.7-1.7,2.6
		c-0.4,1-0.5,2-0.5,3.1c0,1.1,0.1,2.1,0.5,3.1c0.4,1,0.9,1.9,1.7,2.6c1.3,1.2,3,1.9,4.8,1.9c1.8,0,3.5-0.7,4.8-1.9
		c0.7-0.8,1.3-1.7,1.7-2.6s0.5-2,0.5-3.1c0-1.1-0.1-2.1-0.5-3.1S72.3,6,71.5,5.3c-0.6-0.6-1.4-1.1-2.2-1.5S67.6,3.3,66.8,3.4z
		 M48,3.8h-3.8v7H48c0.5,0,0.9-0.1,1.3-0.3c0.4-0.2,0.8-0.4,1.1-0.8c0.5-0.7,0.8-1.5,0.8-2.4c0-0.9-0.3-1.7-0.8-2.4
		c-0.3-0.4-0.6-0.7-1.1-0.9C49,3.9,48.5,3.8,48,3.8z"/>
</g>
</svg>
