<?xml version="1.0" encoding="utf-8"?>
<!-- Generator: Adobe Illustrator 27.2.0, SVG Export Plug-In . SVG Version: 6.00 Build 0)  -->
<svg version="1.1" id="Layer_1" xmlns="http://www.w3.org/2000/svg" xmlns:xlink="http://www.w3.org/1999/xlink" x="0px" y="0px"
	 viewBox="0 0 36 36" style="enable-background:new 0 0 36 36;" xml:space="preserve">
<style type="text/css">
	.st0{fill:#88888C;}
</style>
<path class="st0" d="M4.4,0C2.1,0,0.1,1.8,0,4.2l0,27.7c0.1,2.4,2.2,4.3,4.6,4.1h14.7c0.9,0,1.7-0.8,1.7-1.7v0c0-1-0.8-1.7-1.7-1.7
	H5.2c-1.4,0-2-0.8-2-1.6L3.1,5c0-0.8,0.7-1.6,2-1.6h14.1c0.9,0,1.7-0.8,1.7-1.7S20.3,0,19.3,0H4.6C4.6,0,4.5,0,4.4,0z M16.3,9.6
	c-0.4,0-0.8,0.1-1.1,0.4l-7,7c-0.6,0.7-0.6,1.7,0,2.4l7,7c0.6,0.6,1.7,0.6,2.3,0c0.3-0.3,0.5-0.7,0.5-1.2c0-0.5-0.2-0.9-0.5-1.2
	l-4.1-4.1h20.9c0.9,0,1.7-0.8,1.7-1.7c0-1-0.7-1.7-1.7-1.7H13.5l4.1-4.1c0.6-0.6,0.6-1.6,0-2.2C17.2,9.8,16.8,9.6,16.3,9.6z"/>
</svg>
